# xmcd CD database file
#
# Track frame offsets:
#	150
#	13083
#	23982
#	48417
#	61271
#	71383
#	83691
#	98814
#
# Disc length: 1653 seconds
#
# Revision: 0
# Processed by: cddbd v1.5.2PL0 Copyright (c) Steve Scherf et al.
# Submitted via: CDex 1.84
#
DISCID=5c067308
DTITLE=Martin Zak - Kdyz osadnik zpiva
DYEAR=2012
DGENRE=Country
TTITLE0=V pustych planich
TTITLE1=Svisti pisen
TTITLE2=Navrat
TTITLE3=Starej Joe Clark
TTITLE4=Zena jmenem Sally Goodin
TTITLE5=Mala Betty Ann
TTITLE6=Destive rano
TTITLE7=Strastiplna cesta k Jordanu
EXTD=YEAR: 2012
EXTT0=
EXTT1=
EXTT2=
EXTT3=
EXTT4=
EXTT5=
EXTT6=
EXTT7=
PLAYORDER=
